<svg xmlns="http://www.w3.org/2000/svg" width="264" height="136" viewBox="-66 -34 132 68">
  <polygon points="0,-32.96 65.92,0 0,32.96 -65.92,0" fill="#524d32"/>
  <ellipse cx="7.29" cy="-15.86" rx="9.96" ry="6.47" fill="#5d5b37" opacity="0.35"/>
  <ellipse cx="19.6" cy="2.83" rx="11.16" ry="6.11" fill="#5d5b37" opacity="0.35"/>
  <ellipse cx="11.08" cy="11.67" rx="9.8" ry="4.54" fill="#5d5b37" opacity="0.35"/>
  <ellipse cx="-5.47" cy="17.62" rx="8.61" ry="5.05" fill="#3f3a26" opacity="0.35"/>
  <ellipse cx="-23.13" cy="0.63" rx="12.3" ry="6.08" fill="#3f3a26" opacity="0.35"/>
  <ellipse cx="-42.24" cy="2.34" rx="13.55" ry="6.58" fill="#3f3a26" opacity="0.35"/>
  <polyline points="17.32,10.72 16.32,6.72" fill="none" stroke="#3a3a24" stroke-width="1.1" stroke-linecap="round" stroke-linejoin="round"/>
  <polyline points="19.32,10.72 19.32,5.72" fill="none" stroke="#3a3a24" stroke-width="1.1" stroke-linecap="round" stroke-linejoin="round"/>
  <polyline points="21.32,10.72 22.32,6.72" fill="none" stroke="#3a3a24" stroke-width="1.1" stroke-linecap="round" stroke-linejoin="round"/>
  <polyline points="-12.36,-15.73 -13.36,-19.73" fill="none" stroke="#3a3a24" stroke-width="1.1" stroke-linecap="round" stroke-linejoin="round"/>
  <polyline points="-10.36,-15.73 -10.36,-20.73" fill="none" stroke="#3a3a24" stroke-width="1.1" stroke-linecap="round" stroke-linejoin="round"/>
  <polyline points="-8.36,-15.73 -7.36,-19.73" fill="none" stroke="#3a3a24" stroke-width="1.1" stroke-linecap="round" stroke-linejoin="round"/>
  <polyline points="-38.35,6.38 -39.35,2.38" fill="none" stroke="#3a3a24" stroke-width="1.1" stroke-linecap="round" stroke-linejoin="round"/>
  <polyline points="-36.35,6.38 -36.35,1.38" fill="none" stroke="#3a3a24" stroke-width="1.1" stroke-linecap="round" stroke-linejoin="round"/>
  <polyline points="-34.35,6.38 -33.35,2.38" fill="none" stroke="#3a3a24" stroke-width="1.1" stroke-linecap="round" stroke-linejoin="round"/>
  <polyline points="6.8,-19.19 5.8,-23.19" fill="none" stroke="#3a3a24" stroke-width="1.1" stroke-linecap="round" stroke-linejoin="round"/>
  <polyline points="8.8,-19.19 8.8,-24.19" fill="none" stroke="#3a3a24" stroke-width="1.1" stroke-linecap="round" stroke-linejoin="round"/>
  <polyline points="10.8,-19.19 11.8,-23.19" fill="none" stroke="#3a3a24" stroke-width="1.1" stroke-linecap="round" stroke-linejoin="round"/>
  <polyline points="2.3,17.36 1.3,13.36" fill="none" stroke="#3a3222" stroke-width="1.0" stroke-linecap="round" stroke-linejoin="round"/>
  <polyline points="6.3,17.36 7.3,13.36" fill="none" stroke="#3a3222" stroke-width="1.0" stroke-linecap="round" stroke-linejoin="round"/>
  <ellipse cx="4.97" cy="14.03" rx="1.33" ry="1.26" fill="#6a3e66"/>
  <ellipse cx="1.3" cy="13.58" rx="1.22" ry="1.47" fill="#6a3e66"/>
  <ellipse cx="6.76" cy="14.57" rx="1.8" ry="1.32" fill="#6a3e66"/>
  <ellipse cx="3.29" cy="15.14" rx="1.66" ry="1.39" fill="#7c4a78"/>
  <polyline points="25.48,9.06 24.48,5.06" fill="none" stroke="#3a3222" stroke-width="1.0" stroke-linecap="round" stroke-linejoin="round"/>
  <polyline points="29.48,9.06 30.48,5.06" fill="none" stroke="#3a3222" stroke-width="1.0" stroke-linecap="round" stroke-linejoin="round"/>
  <ellipse cx="25.52" cy="5.81" rx="1.83" ry="1.15" fill="#935c8c"/>
  <ellipse cx="24.13" cy="3.79" rx="1.69" ry="1.21" fill="#7c4a78"/>
  <ellipse cx="26.58" cy="5.45" rx="1.37" ry="1.33" fill="#6a3e66"/>
  <ellipse cx="25.58" cy="4.74" rx="1.8" ry="1.03" fill="#935c8c"/>
  <polyline points="-15.37,-12.36 -16.37,-16.36" fill="none" stroke="#3a3222" stroke-width="1.0" stroke-linecap="round" stroke-linejoin="round"/>
  <polyline points="-11.37,-12.36 -10.37,-16.36" fill="none" stroke="#3a3222" stroke-width="1.0" stroke-linecap="round" stroke-linejoin="round"/>
  <ellipse cx="-10.33" cy="-17.82" rx="1.35" ry="1.46" fill="#935c8c"/>
  <ellipse cx="-15.74" cy="-14.56" rx="1.55" ry="1.1" fill="#6a3e66"/>
  <ellipse cx="-16.43" cy="-17.54" rx="1.38" ry="1.38" fill="#6a3e66"/>
  <ellipse cx="-14.34" cy="-16.01" rx="1.7" ry="1.35" fill="#6a3e66"/>
  <polyline points="-2.58,5.96 -3.58,1.96" fill="none" stroke="#3a3222" stroke-width="1.0" stroke-linecap="round" stroke-linejoin="round"/>
  <polyline points="1.42,5.96 2.42,1.96" fill="none" stroke="#3a3222" stroke-width="1.0" stroke-linecap="round" stroke-linejoin="round"/>
  <ellipse cx="1.26" cy="1.78" rx="1.76" ry="1.29" fill="#7c4a78"/>
  <ellipse cx="-0.77" cy="0.97" rx="1.79" ry="1.49" fill="#935c8c"/>
  <ellipse cx="-1.64" cy="3.84" rx="1.61" ry="1.11" fill="#935c8c"/>
  <ellipse cx="1.35" cy="2.97" rx="1.83" ry="1.32" fill="#935c8c"/>
  <polyline points="3.19,-8.61 2.19,-12.61" fill="none" stroke="#3a3222" stroke-width="1.0" stroke-linecap="round" stroke-linejoin="round"/>
  <polyline points="7.19,-8.61 8.19,-12.61" fill="none" stroke="#3a3222" stroke-width="1.0" stroke-linecap="round" stroke-linejoin="round"/>
  <ellipse cx="8.43" cy="-11.55" rx="1.65" ry="1.22" fill="#6a3e66"/>
  <ellipse cx="3.87" cy="-11.84" rx="1.27" ry="1.09" fill="#935c8c"/>
  <ellipse cx="6.07" cy="-11.99" rx="1.72" ry="1.13" fill="#7c4a78"/>
  <ellipse cx="5" cy="-11.66" rx="1.63" ry="1.11" fill="#935c8c"/>
  <polyline points="13.6,-3.11 12.6,-7.11" fill="none" stroke="#3a3222" stroke-width="1.0" stroke-linecap="round" stroke-linejoin="round"/>
  <polyline points="17.6,-3.11 18.6,-7.11" fill="none" stroke="#3a3222" stroke-width="1.0" stroke-linecap="round" stroke-linejoin="round"/>
  <ellipse cx="17.04" cy="-7.42" rx="1.57" ry="1.3" fill="#935c8c"/>
  <ellipse cx="13.36" cy="-8.26" rx="1.41" ry="1.22" fill="#7c4a78"/>
  <ellipse cx="18.36" cy="-7.17" rx="1.59" ry="1.13" fill="#935c8c"/>
  <ellipse cx="12.24" cy="-7.21" rx="1.35" ry="1.12" fill="#935c8c"/>
  <ellipse cx="-26.57" cy="-2.44" rx="2.8" ry="1.8" fill="#86827a" stroke="#15110d" stroke-width="0.8"/>
  <ellipse cx="-27.37" cy="-3.04" rx="1.2" ry="0.6" fill="#a8a49a"/>
  <ellipse cx="2.02" cy="3.68" rx="2.8" ry="1.8" fill="#86827a" stroke="#15110d" stroke-width="0.8"/>
  <ellipse cx="1.22" cy="3.08" rx="1.2" ry="0.6" fill="#a8a49a"/>
</svg>
