<svg xmlns="http://www.w3.org/2000/svg" width="304" height="152" viewBox="-76 -38 152 76">
  <polygon points="0,-37.12 74.24,0 0,37.12 -74.24,0" fill="#3b6a6a" opacity="0.45"/>
  <polygon points="0,-33.92 67.84,0 0,33.92 -67.84,0" fill="#3b6a6a"/>
  <ellipse cx="12.95" cy="-1.47" rx="9.01" ry="5.04" fill="#6d8a72" opacity="0.35"/>
  <ellipse cx="20.47" cy="6.31" rx="13.06" ry="4.49" fill="#6d8a72" opacity="0.35"/>
  <ellipse cx="3.04" cy="-5.23" rx="9.97" ry="4.74" fill="#6d8a72" opacity="0.35"/>
  <ellipse cx="-39.64" cy="-0.95" rx="12.52" ry="5.55" fill="#6d8a72" opacity="0.35"/>
  <ellipse cx="4.18" cy="11.84" rx="11.08" ry="6.66" fill="#6d8a72" opacity="0.35"/>
  <ellipse cx="-23.06" cy="14.8" rx="1.17" ry="0.88" fill="#8a8676" opacity="0.85"/>
  <ellipse cx="41.34" cy="-3.11" rx="1.1" ry="1.11" fill="#6a6a60" opacity="0.85"/>
  <ellipse cx="9.65" cy="19.31" rx="1.71" ry="0.72" fill="#8a8676" opacity="0.85"/>
  <ellipse cx="12.81" cy="19.76" rx="1.34" ry="1.01" fill="#6a6a60" opacity="0.85"/>
  <ellipse cx="-0.29" cy="10.37" rx="1.77" ry="1.04" fill="#6a6a60" opacity="0.85"/>
  <ellipse cx="-9.84" cy="-10.16" rx="1.72" ry="0.77" fill="#9c9888" opacity="0.85"/>
  <ellipse cx="-5.81" cy="-7.03" rx="1.27" ry="0.99" fill="#9c9888" opacity="0.85"/>
  <ellipse cx="-20.82" cy="4.75" rx="1.88" ry="0.74" fill="#8a8676" opacity="0.85"/>
  <ellipse cx="-9.4" cy="-8.66" rx="1.11" ry="0.73" fill="#9c9888" opacity="0.85"/>
  <ellipse cx="-7.9" cy="-3.47" rx="0.97" ry="0.89" fill="#8a8676" opacity="0.85"/>
  <ellipse cx="-1.05" cy="-18.12" rx="1.76" ry="0.96" fill="#9c9888" opacity="0.85"/>
  <ellipse cx="-12.27" cy="-1.78" rx="1.3" ry="0.74" fill="#6a6a60" opacity="0.85"/>
  <ellipse cx="3.31" cy="20.62" rx="0.92" ry="0.84" fill="#8a8676" opacity="0.85"/>
  <ellipse cx="10.44" cy="-23.29" rx="0.99" ry="0.78" fill="#8a8676" opacity="0.85"/>
  <ellipse cx="23.11" cy="11" rx="1.36" ry="1.12" fill="#9c9888" opacity="0.85"/>
  <ellipse cx="-3" cy="-4.53" rx="1.24" ry="0.96" fill="#9c9888" opacity="0.85"/>
  <ellipse cx="-15.79" cy="1.23" rx="1.54" ry="1.17" fill="#6a6a60" opacity="0.85"/>
  <ellipse cx="-0.54" cy="-9.57" rx="1.21" ry="0.96" fill="#9c9888" opacity="0.85"/>
  <ellipse cx="-25.77" cy="1.01" rx="1.57" ry="1.17" fill="#8a8676" opacity="0.85"/>
  <ellipse cx="25.9" cy="3.96" rx="1.57" ry="1.08" fill="#9c9888" opacity="0.85"/>
  <ellipse cx="4.76" cy="6.22" rx="1.24" ry="1.01" fill="#6a6a60" opacity="0.85"/>
  <ellipse cx="-41.85" cy="2.98" rx="1.48" ry="1.02" fill="#6a6a60" opacity="0.85"/>
  <ellipse cx="-35.19" cy="8.37" rx="1.71" ry="0.83" fill="#6a6a60" opacity="0.85"/>
  <ellipse cx="20.49" cy="-7.23" rx="1.09" ry="1.04" fill="#8a8676" opacity="0.85"/>
  <ellipse cx="33.88" cy="-10.56" rx="1.05" ry="0.9" fill="#8a8676" opacity="0.85"/>
  <ellipse cx="6.71" cy="3.84" rx="1.18" ry="0.88" fill="#6a6a60" opacity="0.85"/>
  <polygon points="0,-25.6 51.2,0 0,25.6 -51.2,0" fill="#8a8a74" opacity="0.25"/>
  <ellipse cx="0.07" cy="-21.17" rx="9.5" ry="4.69" fill="#24484a" opacity="0.7"/>
  <ellipse cx="0.07" cy="-22.77" rx="8.3" ry="3.89" fill="#8a857a" stroke="#15110d" stroke-width="1.1"/>
  <ellipse cx="-1.59" cy="-23.74" rx="4.56" ry="1.75" fill="#a39e90" opacity="0.9"/>
  <ellipse cx="-21.09" cy="-9.59" rx="9.26" ry="4.47" fill="#24484a" opacity="0.7"/>
  <ellipse cx="-21.09" cy="-11.19" rx="8.06" ry="3.67" fill="#8a857a" stroke="#15110d" stroke-width="1.1"/>
  <ellipse cx="-22.7" cy="-12.11" rx="4.43" ry="1.65" fill="#a39e90" opacity="0.9"/>
  <ellipse cx="-43.69" cy="1.76" rx="9.53" ry="4.5" fill="#24484a" opacity="0.7"/>
  <ellipse cx="-43.69" cy="0.16" rx="8.33" ry="3.7" fill="#8a857a" stroke="#15110d" stroke-width="1.1"/>
  <ellipse cx="-45.36" cy="-0.77" rx="4.58" ry="1.67" fill="#a39e90" opacity="0.9"/>
  <ellipse cx="20.26" cy="-9.69" rx="8.56" ry="4.87" fill="#24484a" opacity="0.7"/>
  <ellipse cx="20.26" cy="-11.29" rx="7.36" ry="4.07" fill="#8a857a" stroke="#15110d" stroke-width="1.1"/>
  <ellipse cx="18.79" cy="-12.31" rx="4.05" ry="1.83" fill="#a39e90" opacity="0.9"/>
  <ellipse cx="0.95" cy="0.85" rx="9.4" ry="4.93" fill="#24484a" opacity="0.7"/>
  <ellipse cx="0.95" cy="-0.75" rx="8.2" ry="4.13" fill="#8a857a" stroke="#15110d" stroke-width="1.1"/>
  <ellipse cx="-0.69" cy="-1.79" rx="4.51" ry="1.86" fill="#a39e90" opacity="0.9"/>
  <ellipse cx="-19.57" cy="12.59" rx="8.49" ry="4.76" fill="#24484a" opacity="0.7"/>
  <ellipse cx="-19.57" cy="10.99" rx="7.29" ry="3.96" fill="#8a857a" stroke="#15110d" stroke-width="1.1"/>
  <ellipse cx="-21.03" cy="10" rx="4.01" ry="1.78" fill="#a39e90" opacity="0.9"/>
  <ellipse cx="44.03" cy="0.61" rx="9.12" ry="4.98" fill="#24484a" opacity="0.7"/>
  <ellipse cx="44.03" cy="-0.99" rx="7.92" ry="4.18" fill="#8a857a" stroke="#15110d" stroke-width="1.1"/>
  <ellipse cx="42.44" cy="-2.03" rx="4.36" ry="1.88" fill="#a39e90" opacity="0.9"/>
  <ellipse cx="19.21" cy="12.18" rx="8.61" ry="4.5" fill="#24484a" opacity="0.7"/>
  <ellipse cx="19.21" cy="10.58" rx="7.41" ry="3.7" fill="#8a857a" stroke="#15110d" stroke-width="1.1"/>
  <ellipse cx="17.73" cy="9.65" rx="4.07" ry="1.66" fill="#a39e90" opacity="0.9"/>
  <ellipse cx="-1.09" cy="23.93" rx="8.9" ry="4.55" fill="#24484a" opacity="0.7"/>
  <ellipse cx="-1.09" cy="22.33" rx="7.7" ry="3.75" fill="#8a857a" stroke="#15110d" stroke-width="1.1"/>
  <ellipse cx="-2.63" cy="21.39" rx="4.23" ry="1.69" fill="#a39e90" opacity="0.9"/>
  <path d="M-36.35,8.63 q4.14,-2 8.27,0" fill="none" stroke="#8ab8b0" stroke-width="1.0" stroke-linecap="round" opacity="0.45"/>
  <path d="M22.45,-8.87 q5.29,-2 10.58,0" fill="none" stroke="#8ab8b0" stroke-width="1.0" stroke-linecap="round" opacity="0.45"/>
  <path d="M-50.45,0.36 q3.57,-2 7.15,0" fill="none" stroke="#8ab8b0" stroke-width="1.0" stroke-linecap="round" opacity="0.45"/>
</svg>
