<svg xmlns="http://www.w3.org/2000/svg" width="264" height="136" viewBox="-66 -34 132 68">
  <polygon points="0,-32.96 65.92,0 0,32.96 -65.92,0" fill="#3c572c"/>
  <ellipse cx="-5.15" cy="0.29" rx="15.39" ry="5.4" fill="#314a24" opacity="0.18"/>
  <ellipse cx="19.33" cy="-5.47" rx="12.1" ry="5.89" fill="#314a24" opacity="0.18"/>
  <ellipse cx="-10.05" cy="-14.46" rx="8.73" ry="6.43" fill="#314a24" opacity="0.18"/>
  <ellipse cx="-45.14" cy="0.58" rx="15.72" ry="5.96" fill="#314a24" opacity="0.18"/>
  <ellipse cx="6.84" cy="-19.86" rx="12.23" ry="4.18" fill="#4d6b37" opacity="0.18"/>
  <polyline points="8.85,-18.64 7.85,-22.64" fill="none" stroke="#314a24" stroke-width="1.1" stroke-linecap="round" stroke-linejoin="round"/>
  <polyline points="10.85,-18.64 10.85,-23.64" fill="none" stroke="#314a24" stroke-width="1.1" stroke-linecap="round" stroke-linejoin="round"/>
  <polyline points="12.85,-18.64 13.85,-22.64" fill="none" stroke="#314a24" stroke-width="1.1" stroke-linecap="round" stroke-linejoin="round"/>
  <polyline points="-0.8,-2.45 -1.8,-6.45" fill="none" stroke="#314a24" stroke-width="1.1" stroke-linecap="round" stroke-linejoin="round"/>
  <polyline points="1.2,-2.45 1.2,-7.45" fill="none" stroke="#314a24" stroke-width="1.1" stroke-linecap="round" stroke-linejoin="round"/>
  <polyline points="3.2,-2.45 4.2,-6.45" fill="none" stroke="#314a24" stroke-width="1.1" stroke-linecap="round" stroke-linejoin="round"/>
  <polyline points="14.55,9.26 13.55,5.26" fill="none" stroke="#314a24" stroke-width="1.1" stroke-linecap="round" stroke-linejoin="round"/>
  <polyline points="16.55,9.26 16.55,4.26" fill="none" stroke="#314a24" stroke-width="1.1" stroke-linecap="round" stroke-linejoin="round"/>
  <polyline points="18.55,9.26 19.55,5.26" fill="none" stroke="#314a24" stroke-width="1.1" stroke-linecap="round" stroke-linejoin="round"/>
  <polyline points="5.19,3.59 4.19,-0.41" fill="none" stroke="#314a24" stroke-width="1.1" stroke-linecap="round" stroke-linejoin="round"/>
  <polyline points="7.19,3.59 7.19,-1.41" fill="none" stroke="#314a24" stroke-width="1.1" stroke-linecap="round" stroke-linejoin="round"/>
  <polyline points="9.19,3.59 10.19,-0.41" fill="none" stroke="#314a24" stroke-width="1.1" stroke-linecap="round" stroke-linejoin="round"/>
  <polyline points="8.5,3.07 7.5,-0.93" fill="none" stroke="#314a24" stroke-width="1.1" stroke-linecap="round" stroke-linejoin="round"/>
  <polyline points="10.5,3.07 10.5,-1.93" fill="none" stroke="#314a24" stroke-width="1.1" stroke-linecap="round" stroke-linejoin="round"/>
  <polyline points="12.5,3.07 13.5,-0.93" fill="none" stroke="#314a24" stroke-width="1.1" stroke-linecap="round" stroke-linejoin="round"/>
  <polyline points="-38.84,7.06 -39.84,3.06" fill="none" stroke="#314a24" stroke-width="1.1" stroke-linecap="round" stroke-linejoin="round"/>
  <polyline points="-36.84,7.06 -36.84,2.06" fill="none" stroke="#314a24" stroke-width="1.1" stroke-linecap="round" stroke-linejoin="round"/>
  <polyline points="-34.84,7.06 -33.84,3.06" fill="none" stroke="#314a24" stroke-width="1.1" stroke-linecap="round" stroke-linejoin="round"/>
  <polyline points="5.96,21.4 4.96,17.4" fill="none" stroke="#314a24" stroke-width="1.1" stroke-linecap="round" stroke-linejoin="round"/>
  <polyline points="7.96,21.4 7.96,16.4" fill="none" stroke="#314a24" stroke-width="1.1" stroke-linecap="round" stroke-linejoin="round"/>
  <polyline points="9.96,21.4 10.96,17.4" fill="none" stroke="#314a24" stroke-width="1.1" stroke-linecap="round" stroke-linejoin="round"/>
</svg>
