<svg xmlns="http://www.w3.org/2000/svg" width="296" height="148" viewBox="-74 -37 148 74">
  <polygon points="0,-36.16 72.32,0 0,36.16 -72.32,0" fill="#3b6a6a"/>
  <ellipse cx="-16.63" cy="-0.83" rx="15.28" ry="5.88" fill="#6d8a72" opacity="0.3"/>
  <ellipse cx="-13.8" cy="-4.56" rx="12.88" ry="6.29" fill="#6d8a72" opacity="0.3"/>
  <ellipse cx="-7.78" cy="3.44" rx="15.56" ry="5.97" fill="#6d8a72" opacity="0.3"/>
  <ellipse cx="14.06" cy="5.52" rx="13.62" ry="6.59" fill="#6d8a72" opacity="0.3"/>
  <ellipse cx="10.56" cy="12.47" rx="12.34" ry="5.04" fill="#6d8a72" opacity="0.3"/>
  <ellipse cx="-1.26" cy="-10.99" rx="2" ry="0.91" fill="#7a9486" opacity="0.75"/>
  <ellipse cx="-40.98" cy="-0.21" rx="2.21" ry="1" fill="#58766e" opacity="0.75"/>
  <ellipse cx="-6.44" cy="20.13" rx="2.27" ry="1.08" fill="#7a9486" opacity="0.75"/>
  <ellipse cx="7.84" cy="3.78" rx="1.42" ry="1.16" fill="#7a9486" opacity="0.75"/>
  <ellipse cx="-2.62" cy="21.57" rx="2.39" ry="1.3" fill="#58766e" opacity="0.75"/>
  <ellipse cx="46.57" cy="-1.34" rx="1.95" ry="1.52" fill="#58766e" opacity="0.75"/>
  <ellipse cx="41.77" cy="-0.06" rx="1.73" ry="1.23" fill="#7a9486" opacity="0.75"/>
  <path d="M-36.34,3.18 q5.17,-2.2 10.34,0" fill="none" stroke="#8ab8b0" stroke-width="1.1" stroke-linecap="round" opacity="0.45"/>
  <path d="M-9.68,-2.3 q6.23,-2.2 12.46,0" fill="none" stroke="#8ab8b0" stroke-width="1.1" stroke-linecap="round" opacity="0.45"/>
  <path d="M5.36,-15.78 q4.24,-2.2 8.49,0" fill="none" stroke="#8ab8b0" stroke-width="1.1" stroke-linecap="round" opacity="0.45"/>
</svg>
