<svg xmlns="http://www.w3.org/2000/svg" width="74" height="99" viewBox="-17 -42 37 49.5">
  <ellipse cx="0" cy="0" rx="11" ry="4.5" fill="#000" opacity="0.4"/>
  <polyline points="-3,-1 -4,-9" fill="none" stroke="#15110d" stroke-width="5" stroke-linecap="round" stroke-linejoin="round"/>
  <polyline points="3,-1 4,-9" fill="none" stroke="#15110d" stroke-width="5" stroke-linecap="round" stroke-linejoin="round"/>
  <polyline points="-3,-1.5 -4,-9" fill="none" stroke="#4a6029" stroke-width="3" stroke-linecap="round" stroke-linejoin="round"/>
  <polyline points="3,-1.5 4,-9" fill="none" stroke="#4a6029" stroke-width="3" stroke-linecap="round" stroke-linejoin="round"/>
  <polygon points="-8,-8 7,-8 8,-22 -5,-24" fill="#4a3a2a" stroke="#15110d" stroke-width="1.4" stroke-linejoin="round"/>
  <polyline points="-8,-12 7,-12" fill="none" stroke="#2a1e14" stroke-width="1.6" stroke-linecap="round" stroke-linejoin="round"/>
  <polyline points="5,-14 12,-24" fill="none" stroke="#15110d" stroke-width="3.4" stroke-linecap="round" stroke-linejoin="round"/>
  <polyline points="5,-14 12,-24" fill="none" stroke="#43301e" stroke-width="1.8" stroke-linecap="round" stroke-linejoin="round"/>
  <polygon points="10,-30 17,-26 13,-20 9,-24" fill="#7d7a74" stroke="#15110d" stroke-width="1.4" stroke-linejoin="round"/>
  <polygon points="10,-30 17,-26 16,-25" fill="#8c2a1c" opacity="0.8"/>
  <polygon points="-14,-28 -5,-27 -6,-23" fill="#5f7a36" stroke="#15110d" stroke-width="1.4" stroke-linejoin="round"/>
  <polygon points="12,-30 4,-28 5,-24" fill="#5f7a36" stroke="#15110d" stroke-width="1.4" stroke-linejoin="round"/>
  <ellipse cx="0" cy="-27" rx="7.5" ry="6.5" fill="#5f7a36" stroke="#15110d" stroke-width="1.3"/>
  <ellipse cx="-2" cy="-28" rx="1.6" ry="1.3" fill="#ff3b2a"/>
  <ellipse cx="3.5" cy="-28" rx="1.6" ry="1.3" fill="#ff3b2a"/>
  <polyline points="-2,-23.5 4,-23.5" fill="none" stroke="#15110d" stroke-width="1.2" stroke-linecap="round" stroke-linejoin="round"/>
  <polygon points="-0.5,-23.5 0.5,-21 1.5,-23.5" fill="#e8e0c8" stroke="#15110d" stroke-width="0.6" stroke-linejoin="round"/>
  <path d="M-7,-30 Q-4,-38 2,-37 Q7,-36 7,-30 Q0,-33 -7,-30Z" fill="#3b3b3b" stroke="#15110d" stroke-width="1.2"/>
</svg>
