<svg xmlns="http://www.w3.org/2000/svg" width="124" height="106" viewBox="-31 -50 62 53">
  <polygon points="-5,-24 -26,-20 -21,-16 -27,-11 -19,-10 -21,-4 -7,-16" fill="#5d6068" stroke="#15110d" stroke-width="1.3" stroke-linejoin="round"/>
  <polygon points="5,-24 26,-20 21,-16 27,-11 19,-10 21,-4 7,-16" fill="#5d6068" stroke="#15110d" stroke-width="1.3" stroke-linejoin="round"/>
  <polyline points="-5,-24 -26,-20" fill="none" stroke="#a2a6ae" stroke-width="1.4" stroke-linecap="round" stroke-linejoin="round"/>
  <polyline points="5,-24 26,-20" fill="none" stroke="#a2a6ae" stroke-width="1.4" stroke-linecap="round" stroke-linejoin="round"/>
  <polygon points="-7,-12 7,-12 9,-26 -9,-26" fill="#7c7f86" stroke="#15110d" stroke-width="1.4" stroke-linejoin="round"/>
  <polygon points="0,-12 7,-12 9,-26 0,-26" fill="#5d6068" opacity="0.6"/>
  <polyline points="-4,-12 -6,-6" fill="none" stroke="#15110d" stroke-width="4.2" stroke-linecap="round" stroke-linejoin="round"/>
  <polyline points="4,-12 6,-6" fill="none" stroke="#15110d" stroke-width="4.2" stroke-linecap="round" stroke-linejoin="round"/>
  <polyline points="-4,-12 -6,-6" fill="none" stroke="#7c7f86" stroke-width="2.6" stroke-linecap="round" stroke-linejoin="round"/>
  <polyline points="4,-12 6,-6" fill="none" stroke="#7c7f86" stroke-width="2.6" stroke-linecap="round" stroke-linejoin="round"/>
  <polyline points="-8,-5 -4,-6" fill="none" stroke="#15110d" stroke-width="1.6" stroke-linecap="round" stroke-linejoin="round"/>
  <polyline points="4,-6 8,-5" fill="none" stroke="#15110d" stroke-width="1.6" stroke-linecap="round" stroke-linejoin="round"/>
  <polygon points="1,-10 -2,-3 4,-1 2,-3" fill="#5d6068" stroke="#15110d" stroke-width="1" stroke-linejoin="round"/>
  <polygon points="-5,-34 -9,-41 -3,-36" fill="#a2a6ae" stroke="#15110d" stroke-width="1" stroke-linejoin="round"/>
  <polygon points="5,-34 9,-41 3,-36" fill="#a2a6ae" stroke="#15110d" stroke-width="1" stroke-linejoin="round"/>
  <ellipse cx="0" cy="-31" rx="6.5" ry="5.5" fill="#7c7f86" stroke="#15110d" stroke-width="1.3"/>
  <polyline points="-5,-33 5,-33" fill="none" stroke="#15110d" stroke-width="1.6" stroke-linecap="round" stroke-linejoin="round"/>
  <ellipse cx="-2.3" cy="-31.5" rx="1.3" ry="1" fill="#ffb02a"/>
  <ellipse cx="2.3" cy="-31.5" rx="1.3" ry="1" fill="#ffb02a"/>
  <polygon points="-2,-27.5 -1,-25 0,-27.5" fill="#e8e4dc" stroke="#15110d" stroke-width="0.5" stroke-linejoin="round"/>
  <polygon points="0.5,-27.5 1.5,-25 2.5,-27.5" fill="#e8e4dc" stroke="#15110d" stroke-width="0.5" stroke-linejoin="round"/>
</svg>
